<svg xmlns="http://www.w3.org/2000/svg" width="114.493" height="109.929" viewBox="0 0 114.493 109.929">
  <g id="drilling-rig" transform="translate(0 -10.205)">
    <path id="Path_150" data-name="Path 150" d="M82.437,24.55H105.65a5.5,5.5,0,0,0,0-10.992H69.779v44.29H80.764V46.672a1.677,1.677,0,1,1,3.353,0V86.43a5.043,5.043,0,0,1-5.02,5.02H64.073V95.9H72a12.117,12.117,0,0,1,0,24.234H53.183a1.677,1.677,0,1,1,0-3.353H72A8.76,8.76,0,0,0,72,99.26H26.769a8.76,8.76,0,0,0,0,17.521h18.82a1.677,1.677,0,0,1,0,3.353H26.769a12.117,12.117,0,0,1,0-24.234H34.7V91.45H5.02A5.043,5.043,0,0,1,0,86.43V62.869a5.032,5.032,0,0,1,5.02-5.021h34.1L31.8,26.6a1.68,1.68,0,0,1,1.629-2.054H66.419V11.885a1.683,1.683,0,0,1,1.68-1.68h37.552a8.848,8.848,0,0,1,1.673,17.533V38.895a4.885,4.885,0,0,1,1.578.165,5.02,5.02,0,0,1,1.217,9.192l-2.8,1.61v3.531a4.885,4.885,0,0,1,1.578.165,5.017,5.017,0,0,1,1.211,9.191l-2.789,1.61v3.531a5.036,5.036,0,0,1,4.691,2.612,4.989,4.989,0,0,1,.437,3.7,5.347,5.347,0,0,1-2.428,3.1l-2.7,1.559v3.531a5.273,5.273,0,0,1,1.578.165,5.02,5.02,0,0,1,1.217,9.191l-2.8,1.617v8.31a1.814,1.814,0,0,1-.083.513l-3.347,10.332a1.667,1.667,0,0,1-3.182.013l-3.3-10.212a1.682,1.682,0,0,1-.133-.647V98.531a4.985,4.985,0,0,1-4.716-2.669,4.981,4.981,0,0,1-.412-3.639,5.475,5.475,0,0,1,2.44-3.106l2.688-1.553V84.034a4.9,4.9,0,0,1-1.579-.165,5.017,5.017,0,0,1-1.211-9.192l2.789-1.61V69.537a4.905,4.905,0,0,1-1.579-.165,5.017,5.017,0,0,1-1.211-9.191l2.789-1.61V55.04a4.905,4.905,0,0,1-1.579-.165,5.017,5.017,0,0,1-1.211-9.191l2.789-1.61V27.9H84.117V39.079a1.677,1.677,0,0,1-3.353,0V26.23a1.693,1.693,0,0,1,1.674-1.68Zm-46.1,85.144a1.677,1.677,0,0,1,0-3.353h4.241a1.677,1.677,0,0,1,0,3.353Zm21.863,0a1.677,1.677,0,1,1,0-3.353h4.234a1.677,1.677,0,1,1,0,3.353Zm-10.935,0a1.677,1.677,0,0,1,0-3.353H51.5a1.677,1.677,0,1,1,0,3.353ZM6.928,72.573a1.68,1.68,0,0,1,3.36,0v4.152a1.68,1.68,0,0,1-3.36,0Zm13.388,0a1.677,1.677,0,1,1,3.353,0v4.152a1.677,1.677,0,1,1-3.353,0Zm-6.694,0a1.677,1.677,0,1,1,3.353,0v4.152a1.677,1.677,0,1,1-3.353,0Zm52.8-2.339H61.842a1.677,1.677,0,1,1,0-3.353h4.577V61.2H51.745V79.6H66.419Zm3.36-9.033V81.27a1.683,1.683,0,0,1-1.68,1.68H50.065a1.677,1.677,0,0,1-1.673-1.68V61.2H5.02a1.689,1.689,0,0,0-1.667,1.667v2.206H24.931A5.671,5.671,0,0,1,30.6,70.741v7.816a5.682,5.682,0,0,1-5.667,5.667H3.353V86.43A1.689,1.689,0,0,0,5.02,88.1H79.1a1.689,1.689,0,0,0,1.667-1.667V61.2H69.779ZM63.085,39.079a1.677,1.677,0,0,1-3.353,0V34.591H43.979l3.886,16.563H59.731V46.673a1.677,1.677,0,1,1,3.353,0v6.161a1.677,1.677,0,0,1-1.68,1.673H46.54A1.672,1.672,0,0,1,44.9,53.214L40.258,33.386a1.678,1.678,0,0,1,1.61-2.149H61.4a1.683,1.683,0,0,1,1.68,1.68v6.162ZM42.559,57.848h23.86V27.9H35.542Zm56.4-37.12a1.677,1.677,0,1,1,0-3.353h6.694a1.677,1.677,0,0,1,0,3.353ZM103.97,27.9h-3.334V42.134l3.334-1.927Zm0,73.518v-6.13l-3.334,1.927v4.2l1.667,5.16Zm4.469-12.576a1.669,1.669,0,0,0,.78-1.014,1.711,1.711,0,0,0-.127-1.211,1.667,1.667,0,0,0-1.052-.83,1.642,1.642,0,0,0-1.268.158L96.161,92.072a1.672,1.672,0,0,0-.774,1.021,1.646,1.646,0,0,0,1.179,2.041,1.627,1.627,0,0,0,1.262-.158q5.305-3.061,10.611-6.13ZM103.97,83.7V80.789l-3.334,1.927v2.916Zm4.387-9.3a1.7,1.7,0,0,0,.735-2.282,1.666,1.666,0,0,0-1.052-.83c-.818-.222-1.065.1-1.661.387L96.263,77.518a1.7,1.7,0,0,0-.659,2.441,1.706,1.706,0,0,0,2.383.431Q103.169,77.394,108.357,74.405Zm.089-14.554a1.673,1.673,0,0,0-.405-3.062,1.693,1.693,0,0,0-1.452.273q-5.22,3-10.427,6.016a1.661,1.661,0,0,0-.774,1.021,1.63,1.63,0,0,0,.2,1.337,1.692,1.692,0,0,0,2.168.583q5.344-3.081,10.687-6.168Zm-7.81,8.367v2.91l3.334-1.921V66.291Zm7.8-22.864a1.671,1.671,0,0,0-1.667-2.9L96.161,48.581a1.692,1.692,0,0,0-.615,2.288,1.693,1.693,0,0,0,2.225.646l10.668-6.161Zm-7.8,8.374v2.9L103.97,54.7V51.8ZM3.353,80.871H24.931a2.326,2.326,0,0,0,2.314-2.314V70.742a2.326,2.326,0,0,0-2.314-2.314H3.353ZM38.052,95.9H60.72v-4.45H38.052ZM72,102.436a5.584,5.584,0,1,1-3.949,1.635A5.562,5.562,0,0,1,72,102.436Zm1.572,4.006a2.228,2.228,0,1,0-1.572,3.8,2.228,2.228,0,0,0,1.572-3.8Zm-46.807-4.006a5.573,5.573,0,1,1-3.949,1.635A5.563,5.563,0,0,1,26.769,102.436Zm1.572,4.006a2.225,2.225,0,0,0-3.144,3.15,2.225,2.225,0,0,0,3.8-1.572,2.222,2.222,0,0,0-.653-1.578Z" fill="#fff"/>
  </g>
</svg>
