<svg xmlns="http://www.w3.org/2000/svg" width="48.821" height="103.097" viewBox="0 0 48.821 103.097">
  <g id="drill-tip" transform="translate(-87.55)">
    <path id="Path_147" data-name="Path 147" d="M89.877,36.433a2.316,2.316,0,0,0,.913-.188l35.743-15.3.026-.011,8.4-3.6a2.325,2.325,0,0,0-1.83-4.274l-5.166,2.211V2.325A2.324,2.324,0,0,0,125.64,0H97.562a2.324,2.324,0,0,0-2.325,2.325v26.96L88.96,31.971a2.325,2.325,0,0,0,.916,4.462ZM99.887,4.65h23.428V17.266L99.887,27.294Z" fill="#fff"/>
    <path id="Path_148" data-name="Path 148" d="M133.132,95.1l-5.166,2.211V86.909a2.325,2.325,0,1,0-4.65,0V99.3L99.888,109.333V97.24a2.325,2.325,0,0,0-4.65,0v14.083l-6.277,2.687a2.325,2.325,0,1,0,1.829,4.274L98.455,115l.028-.012,28.051-12.007.026-.011,8.4-3.6a2.325,2.325,0,0,0-1.829-4.274Z" transform="translate(-0.001 -58.366)" fill="#fff"/>
    <path id="Path_149" data-name="Path 149" d="M133.132,169.989l-5.166,2.211V161.128a2.325,2.325,0,1,0-4.65,0v13.063L99.888,184.219V172.127a2.325,2.325,0,0,0-4.65,0V186.21L88.961,188.9a2.325,2.325,0,1,0,1.829,4.274l6.422-2.749L109.6,211.528a2.325,2.325,0,0,0,4.01,0L127.646,187.6a2.327,2.327,0,0,0,.32-1.177v-9.167l7-2.995a2.325,2.325,0,0,0-1.829-4.274Zm-9.816,15.8L111.6,205.757l-10.081-17.18,21.795-9.329Z" transform="translate(-0.001 -109.579)" fill="#fff"/>
  </g>
</svg>
