<svg xmlns="http://www.w3.org/2000/svg" xmlns:xlink="http://www.w3.org/1999/xlink" width="62.931" height="72.185" viewBox="0 0 62.931 72.185">
  <defs>
    <linearGradient id="linear-gradient" x1="0.5" y1="1" x2="0.5" gradientUnits="objectBoundingBox">
      <stop offset="0" stop-color="#dd164c"/>
      <stop offset="1" stop-color="#5d0aa8"/>
    </linearGradient>
  </defs>
  <path id="Op_component_1" data-name="Op component 1" d="M670.994,3032.564l-24.872-24.847a6.593,6.593,0,0,0-10.13,8.345l-.035.173a45.957,45.957,0,0,1-12.625,23.566l-11.408,11.4a6.58,6.58,0,0,0,0,9.317l6.218,6.211a6.6,6.6,0,0,0,9.327,0l1.555-1.553,10.881,10.87a6.592,6.592,0,0,0,9.327-9.317l-4.663-4.658,1.555-1.553a6.58,6.58,0,0,0,0-9.317l-1.056-1.055a46.048,46.048,0,0,1,17.4-7.425l.175-.035a6.608,6.608,0,0,0,8.352-.8h0A6.591,6.591,0,0,0,670.994,3032.564Zm-46.634,31.057a2.2,2.2,0,0,1-3.109,0l-6.218-6.211a2.194,2.194,0,0,1,0-3.106l10.881-10.87,9.327,9.318Zm21.762,6.212a2.2,2.2,0,0,1-3.109,3.106l-10.881-10.87,3.109-3.106Zm-7.772-13.976c.661-.66,1.65-1.672,3.211-3l1.452,1.451a2.193,2.193,0,0,1,0,3.106l-1.555,1.553Zm.093-6.118-9.514-9.5a50.275,50.275,0,0,0,10.7-20.366l19.2,19.177A50.363,50.363,0,0,0,638.443,3049.739Zm29.441-10.964a2.2,2.2,0,0,1-3.109,0L639.9,3013.929a2.2,2.2,0,0,1,3.109-3.106l24.871,24.846A2.2,2.2,0,0,1,667.885,3038.775Z" transform="translate(-609.991 -3005.791)" fill="url(#linear-gradient)"/>
</svg>
