<svg id="well" xmlns="http://www.w3.org/2000/svg" width="118.044" height="118.044" viewBox="0 0 118.044 118.044">
  <path id="Path_151" data-name="Path 151" d="M37.377,82.216H3.457V94.483a1.729,1.729,0,1,1-3.457,0V20.064a1.735,1.735,0,0,1,1.732-1.732H53.487V1.732A1.735,1.735,0,0,1,55.218,0h7.614a1.729,1.729,0,0,1,1.725,1.732V17.574a5.592,5.592,0,0,1,3.333.758h48.428a1.729,1.729,0,0,1,1.725,1.732V51.4a1.729,1.729,0,1,1-3.457,0V31.861H80.674v46.9h33.913V59.231a1.729,1.729,0,1,1,3.457,0v57.087a1.724,1.724,0,0,1-1.725,1.725H1.732A1.729,1.729,0,0,1,0,116.319v-14a1.729,1.729,0,1,1,3.457,0v12.267H114.587V82.216H80.674V87.6a21.649,21.649,0,0,1-43.3,0ZM86.262,75.5a1.729,1.729,0,0,1,0-3.457h3.1a1.729,1.729,0,0,1,0,3.457Zm0-36.925a1.729,1.729,0,0,1,0-3.457h3.1a1.729,1.729,0,0,1,0,3.457Zm19.632,0a1.729,1.729,0,1,1,0-3.457h3.1a1.729,1.729,0,1,1,0,3.457Zm-9.816,0a1.729,1.729,0,0,1,0-3.457h3.1a1.729,1.729,0,0,1,0,3.457ZM86.262,50.885a1.729,1.729,0,0,1,0-3.457h3.1a1.729,1.729,0,0,1,0,3.457Zm14.724-6.156a1.729,1.729,0,1,1,0-3.457h3.1a1.729,1.729,0,1,1,0,3.457Zm-9.816,0a1.729,1.729,0,0,1,0-3.457h3.1a1.729,1.729,0,0,1,0,3.457Zm14.724,6.156a1.729,1.729,0,1,1,0-3.457h3.1a1.729,1.729,0,1,1,0,3.457Zm-9.816,0a1.729,1.729,0,0,1,0-3.457h3.1a1.729,1.729,0,0,1,0,3.457ZM86.262,63.2a1.732,1.732,0,0,1,0-3.464h3.1a1.732,1.732,0,0,1,0,3.464Zm14.724-6.156a1.729,1.729,0,1,1,0-3.457h3.1a1.729,1.729,0,1,1,0,3.457Zm-9.816,0a1.729,1.729,0,0,1,0-3.457h3.1a1.729,1.729,0,0,1,0,3.457ZM105.894,63.2a1.732,1.732,0,0,1,0-3.464h3.1a1.732,1.732,0,0,1,0,3.464Zm-9.816,0a1.732,1.732,0,0,1,0-3.464h3.1a1.732,1.732,0,0,1,0,3.464Zm4.908,6.15a1.729,1.729,0,1,1,0-3.458h3.1a1.729,1.729,0,1,1,0,3.458Zm-9.816,0a1.729,1.729,0,0,1,0-3.458h3.1a1.729,1.729,0,0,1,0,3.458ZM105.894,75.5a1.729,1.729,0,1,1,0-3.457h3.1a1.729,1.729,0,1,1,0,3.457Zm-9.816,0a1.729,1.729,0,0,1,0-3.457h3.1a1.729,1.729,0,0,1,0,3.457Zm-87.026,0a1.729,1.729,0,1,1,0-3.457h3.1a1.729,1.729,0,0,1,0,3.457Zm0-36.925a1.729,1.729,0,1,1,0-3.457h3.1a1.729,1.729,0,0,1,0,3.457Zm19.633,0a1.729,1.729,0,1,1,0-3.457h3.1a1.729,1.729,0,1,1,0,3.457Zm-9.816,0a1.729,1.729,0,1,1,0-3.457h3.1a1.729,1.729,0,1,1,0,3.457ZM9.052,50.885a1.729,1.729,0,1,1,0-3.457h3.1a1.729,1.729,0,0,1,0,3.457Zm14.724-6.156a1.729,1.729,0,1,1,0-3.457h3.1a1.729,1.729,0,1,1,0,3.457Zm-9.816,0a1.729,1.729,0,1,1,0-3.457h3.1a1.729,1.729,0,1,1,0,3.457Zm14.725,6.156a1.729,1.729,0,1,1,0-3.457h3.1a1.729,1.729,0,1,1,0,3.457Zm-9.816,0a1.729,1.729,0,1,1,0-3.457h3.1a1.729,1.729,0,1,1,0,3.457ZM9.052,63.2a1.732,1.732,0,1,1,0-3.464h3.1a1.732,1.732,0,0,1,0,3.464Zm14.724-6.156a1.729,1.729,0,1,1,0-3.457h3.1a1.729,1.729,0,1,1,0,3.457Zm-9.816,0a1.729,1.729,0,1,1,0-3.457h3.1a1.729,1.729,0,1,1,0,3.457ZM28.684,63.2a1.732,1.732,0,0,1,0-3.464h3.1a1.732,1.732,0,0,1,0,3.464Zm-9.816,0a1.732,1.732,0,0,1,0-3.464h3.1a1.732,1.732,0,1,1,0,3.464Zm4.908,6.15a1.729,1.729,0,1,1,0-3.458h3.1a1.729,1.729,0,1,1,0,3.458Zm-9.816,0a1.729,1.729,0,1,1,0-3.458h3.1a1.729,1.729,0,1,1,0,3.458ZM28.684,75.5a1.729,1.729,0,1,1,0-3.457h3.1a1.729,1.729,0,1,1,0,3.457Zm-9.816,0a1.729,1.729,0,1,1,0-3.457h3.1a1.729,1.729,0,1,1,0,3.457Zm90.242,20.24a1.727,1.727,0,0,1,3.229,1.229l-5.157,13.47a1.727,1.727,0,1,1-3.228-1.229Zm-4.248-9.378a1.727,1.727,0,1,1,3.228,1.229l-8.744,22.848a1.727,1.727,0,0,1-3.228-1.229Zm-7.83,0a1.727,1.727,0,0,1,3.228,1.229l-8.744,22.848a1.727,1.727,0,0,1-3.228-1.229Zm-7.836,0a1.727,1.727,0,1,1,3.228,1.229L83.68,110.443a1.727,1.727,0,0,1-3.228-1.229ZM73.119,107.9a1.727,1.727,0,1,1,3.228,1.229l-.5,1.313a1.727,1.727,0,1,1-3.228-1.229Zm-31.351.059A1.727,1.727,0,1,1,45,109.188l-.484,1.255a1.727,1.727,0,0,1-3.229-1.229Zm-5.634-5.752a1.727,1.727,0,0,1,3.229,1.229l-2.68,7.006a1.727,1.727,0,0,1-3.228-1.229Zm-4.248-9.372a1.727,1.727,0,1,1,3.228,1.229l-6.267,16.378a1.727,1.727,0,0,1-3.229-1.229Zm-5.353-6.47a1.727,1.727,0,1,1,3.228,1.229l-8.744,22.848a1.727,1.727,0,0,1-3.229-1.229Zm-7.836,0a1.727,1.727,0,1,1,3.228,1.229l-8.744,22.848a1.727,1.727,0,1,1-3.228-1.229Zm-7.83,0A1.727,1.727,0,1,1,14.1,87.595l-5.156,13.47a1.727,1.727,0,1,1-3.228-1.228ZM40.834,21.789V49.912a1.729,1.729,0,1,1-3.457,0V31.861H3.457v46.9H37.377V57.748a1.729,1.729,0,1,1,3.457,0V87.6a18.188,18.188,0,0,0,36.377,0V21.789H70.439a5.554,5.554,0,0,1-2.608,6.084.75.75,0,0,1-.1.052l-3.176,1.83v4.32a5.66,5.66,0,0,1,1.935.163A5.532,5.532,0,0,1,70.4,41.01a5.881,5.881,0,0,1-2.666,3.412l-3.176,1.836v4.314a5.538,5.538,0,0,1,5.843,6.94,5.881,5.881,0,0,1-2.666,3.412l-3.176,1.83v4.32a5.66,5.66,0,0,1,1.935.163A5.529,5.529,0,0,1,70.4,74.008a5.881,5.881,0,0,1-2.666,3.412l-3.176,1.836V86.85a14.261,14.261,0,0,1-.177,2.242,14.5,14.5,0,0,1-.516,2.137l-2.595,8.012a2.744,2.744,0,0,1-.908,1.353,2.213,2.213,0,0,1-1.327.464,2.137,2.137,0,0,1-1.353-.464,2.731,2.731,0,0,1-.909-1.353l-2.588-8.012a13.393,13.393,0,0,1-.516-2.163,13.827,13.827,0,0,1-.183-2.216V85.059a5.526,5.526,0,0,1-5.235-2.647,1.549,1.549,0,0,1-.15-.268,5.525,5.525,0,0,1,2.117-7.379V74.76l3.268-1.882V68.564a5.449,5.449,0,0,1-1.928-.17,5.52,5.52,0,0,1-3.915-6.771,6.043,6.043,0,0,1,2.68-3.425l3.163-1.823V52.062a5.606,5.606,0,0,1-1.928-.163,5.536,5.536,0,0,1-1.34-10.137l3.268-1.882V35.566a5.455,5.455,0,0,1-1.928-.17,5.525,5.525,0,0,1-3.915-6.771,6.008,6.008,0,0,1,2.68-3.418l3.163-1.83V21.789Zm25.554-.307a2.27,2.27,0,0,0-.791-.405c-.987-.262-1.294.1-2.013.457q-5.813,3.352-11.64,6.718v-.006l-.006.006a2.077,2.077,0,0,0,.51,3.81c1.033.274,1.353-.072,2.052-.471l11.509-6.647a1.953,1.953,0,0,0,1.059-1.32,2.136,2.136,0,0,0-.006-1.131A2.074,2.074,0,0,0,66.387,21.482Zm-9.444-.1,4.156-2.4V3.457H56.944V21.384ZM61.1,31.756l-4.156,2.4V37.88l4.156-2.4ZM56.944,70.877l4.156-2.4V64.754l-4.156,2.4ZM61.1,81.249l-4.156,2.4v3.2a11.559,11.559,0,0,0,.124,1.686,11.748,11.748,0,0,0,.4,1.641l1.555,4.817,1.562-4.817a10.8,10.8,0,0,0,.392-1.621A10.549,10.549,0,0,0,61.1,86.85v-5.6Zm2.483-10.221-7.4,4.274a2.376,2.376,0,0,1-.216.124l-4.026,2.32-.013.006a2.087,2.087,0,0,0,.516,3.8c1.046.281,1.307-.131,2.052-.471l7.333-4.235a1.923,1.923,0,0,1,.281-.157l3.9-2.255a2.1,2.1,0,0,0,.856-2.9,2.054,2.054,0,0,0-1.268-.961c-.981-.268-1.294.1-2.013.451Zm-6.64-16.646L61.1,51.977V48.251l-4.156,2.4Zm6.64.15q-5.813,3.352-11.64,6.719v-.007l-.006.007a2.088,2.088,0,0,0,.51,3.81c1.033.274,1.32-.137,2.052-.471l11.509-6.646a2.1,2.1,0,0,0,1.059-1.32,2.062,2.062,0,0,0-1.47-2.549c-.98-.261-1.294.1-2.013.457Zm0-16.5q-5.813,3.363-11.64,6.719a2.09,2.09,0,0,0-.961,1.268,2.055,2.055,0,0,0,1.464,2.542c1.033.274,1.32-.131,2.052-.471l11.509-6.647a2.084,2.084,0,0,0-.412-3.862c-.98-.268-1.294.1-2.013.451ZM3.457,28.4H37.377V21.789H3.457Zm111.129-6.614H80.674V28.4h33.913Z" transform="translate(0 0)" fill="#fff"/>
</svg>
